<mxfile host="app.diagrams.net" modified="2024-08-02T15:38:18.212Z" agent="Mozilla/5.0 (Macintosh; Intel Mac OS X 10_15_7) AppleWebKit/537.36 (KHTML, like Gecko) Chrome/127.0.0.0 Safari/537.36" version="24.6.5" etag="uGpt5jEJJbKrAy9C6oPF" type="github">
  <diagram name="페이지-1" id="aS-DP6XRAKGreAmZmJG1">
    <mxGraphModel>
      <root>
        <mxCell id="0" />
        <mxCell id="1" parent="0" />
      </root>
    </mxGraphModel>
  </diagram>
</mxfile>
